<svg width="34" height="31" viewBox="0 0 34 31" fill="none" xmlns="http://www.w3.org/2000/svg">
<path d="M9.92004 3.91988C8.90671 4.53321 7.82671 6.42655 6.68004 9.59988C5.56004 12.7732 4.73337 16.0932 4.20004 19.5599C3.66671 22.9999 3.66671 25.3732 4.20004 26.6799C5.96004 25.7732 7.53337 24.3199 8.92004 22.3199C9.08004 22.0532 9.33337 21.6132 9.68004 20.9999C9.81337 20.7332 9.93337 20.5332 10.04 20.3999C10.1734 20.2665 10.3467 20.1599 10.56 20.0799C10.8 19.9999 11.0534 20.0532 11.32 20.2399C11.6934 20.4532 11.9467 20.7865 12.08 21.2399C12.2134 21.6932 12.1734 22.0932 11.96 22.4399C11.4534 23.3465 10.6934 24.6399 9.68004 26.3199C9.14671 27.1732 8.65337 27.9465 8.20004 28.6399C7.32004 29.9465 6.22671 30.3599 4.92004 29.8799C3.82671 29.4799 2.77337 28.9065 1.76004 28.1599C1.57337 28.0265 1.41337 27.8665 1.28004 27.6799C1.14671 27.4932 1.04004 27.3332 0.960039 27.1999C0.906706 27.0399 0.853372 26.8265 0.800039 26.5599C0.746706 26.2665 0.706706 26.0665 0.680039 25.9599C0.680039 25.8532 0.666706 25.6265 0.640039 25.2799C0.640039 24.9332 0.640039 24.7332 0.640039 24.6799C0.213372 18.4665 1.80004 11.6665 5.40004 4.27988C5.93337 3.15988 6.53337 2.19988 7.20004 1.39988C8.00004 0.466548 8.85337 0.413215 9.76004 1.23988C11.8934 3.26655 12.8134 5.42655 12.52 7.71988C12.52 7.79988 12.3734 8.49321 12.08 9.79988C11.4134 9.45321 10.92 9.09321 10.6 8.71988C10.3067 8.31988 10.16 7.82655 10.16 7.23988C10.16 7.07988 10.08 5.97322 9.92004 3.91988ZM16.5679 22.7999C17.3145 23.2532 17.7279 23.6665 17.8079 24.0399C17.9145 24.3865 17.7679 24.8265 17.3679 25.3599C17.2612 25.4932 17.1279 25.7199 16.9679 26.0399C16.8345 26.3599 16.7145 26.5999 16.6079 26.7599C16.5545 26.8399 16.4745 26.9199 16.3679 26.9999C16.2879 27.0532 16.1679 27.1199 16.0079 27.1999C15.8745 27.2799 15.7812 27.3332 15.7279 27.3599C15.4079 26.7999 15.2212 26.4799 15.1679 26.3999C15.1679 26.3732 15.1545 26.1599 15.1279 25.7599C15.3945 24.2665 15.5412 23.4265 15.5679 23.2399C15.6745 22.6265 16.0079 22.4799 16.5679 22.7999ZM32.3769 8.75988C33.0169 8.70655 33.4169 8.82655 33.5769 9.11988C33.7636 9.38655 33.7102 9.79988 33.4169 10.3599C33.0969 10.9732 32.5769 11.8799 31.8569 13.0799C31.1636 14.2532 30.6569 15.1465 30.3369 15.7599C29.6169 17.1199 29.0302 18.2399 28.5769 19.1199C28.1502 19.9732 27.6836 21.0399 27.1769 22.3199C26.6702 23.5732 26.2836 24.7732 26.0169 25.9199C25.9102 26.2932 25.7502 26.5465 25.5369 26.6799C25.3502 26.8132 25.0569 26.8532 24.6569 26.7999C23.6969 26.6665 23.0302 26.4532 22.6569 26.1599C22.3102 25.8399 22.0569 25.2265 21.8969 24.3199C21.7636 23.7865 21.0836 20.1065 19.8569 13.2799C19.7769 12.8532 19.8169 12.5599 19.9769 12.3999C20.1636 12.2132 20.4436 12.1999 20.8169 12.3599C21.6436 12.6799 22.1369 13.0132 22.2969 13.3599C22.6436 14.3465 23.1502 16.0399 23.8169 18.4399C23.8436 18.5732 24.0702 19.6399 24.4969 21.6399C24.5502 21.6399 24.6302 21.6532 24.7369 21.6799C26.4969 18.0265 27.4569 16.0532 27.6169 15.7599C28.8702 13.3332 30.0169 11.2265 31.0569 9.43988C31.1636 9.25322 31.3502 9.09322 31.6169 8.95988C31.8836 8.82655 32.1369 8.75988 32.3769 8.75988Z" fill="white"/>
</svg>
