<svg width="22" height="17" viewBox="0 0 22 17" fill="none" xmlns="http://www.w3.org/2000/svg">
<path d="M1.86917 16.6979C1.32919 16.6979 0.882664 16.5214 0.529599 16.1683C0.176533 15.8153 0 15.3687 0 14.8288V1.86917C0 1.32919 0.176533 0.882664 0.529599 0.529599C0.882664 0.176533 1.32919 0 1.86917 0H19.8132C20.3532 0 20.7997 0.176533 21.1528 0.529599C21.5059 0.882664 21.6824 1.32919 21.6824 1.86917V14.8288C21.6824 15.3687 21.5059 15.8153 21.1528 16.1683C20.7997 16.5214 20.3532 16.6979 19.8132 16.6979H1.86917ZM10.8412 8.16205L0.87228 1.55764V14.8288C0.87228 15.1195 0.965738 15.3584 1.15266 15.5453C1.33957 15.7322 1.57841 15.8256 1.86917 15.8256H19.8132C20.104 15.8256 20.3428 15.7322 20.5297 15.5453C20.7166 15.3584 20.8101 15.1195 20.8101 14.8288V1.55764L10.8412 8.16205ZM10.8412 7.10285L20.3117 0.87228H1.37073L10.8412 7.10285ZM0.87228 1.55764V0.87228V14.8288C0.87228 15.1195 0.965738 15.3584 1.15266 15.5453C1.33957 15.7322 1.57841 15.8256 1.86917 15.8256H0.87228V1.55764Z" fill="white"/>
</svg>
